<svg height="652" viewBox="0 0 auto 652" fill="none" xmlns="http://www.w3.org/2000/svg">
<path d="M-20.4885 -179L-40.4961 409.027L-48.1228 522.186C-49.6795 545.283 -31.3634 564.876 -8.21329 564.876H98.2724C103.203 564.876 108.091 563.964 112.69 562.187L303.242 488.553C307.841 486.776 312.729 485.864 317.66 485.864H618.959C627.349 485.864 635.526 488.502 642.334 493.405L733.414 558.997C738.773 562.856 745.004 565.328 751.551 566.193L1230.53 629.465C1255.91 632.818 1277.86 611.797 1275.62 586.295L1212.47 -129.487L-20.4885 -179Z" fill="#2A8086"/>
<path opacity="0.3" d="M-20.5 -153L-40.5 435.214L-48.1249 548.425C-49.6805 571.522 -31.3647 591.113 -8.21533 591.113H98.2087C103.143 591.113 108.034 590.2 112.635 588.42L303.102 514.768C307.704 512.989 312.595 512.076 317.529 512.076H618.695C627.089 512.076 635.271 514.717 642.081 519.625L732.942 585.104C738.412 589.046 744.789 591.541 751.481 592.358L1231.99 651.017C1257.23 654.099 1278.91 633.149 1276.68 607.815L1212 -129.331L-20.5 -153Z" fill="#2A8086"/>
</svg>
