<svg preserveAspectRatio="none" height="795" viewBox="0 0 1920 795" fill="none" xmlns="http://www.w3.org/2000/svg">
<path opacity="0.3" d="M-1.5 -144L-21.5 527L-29.4991 662.482C-30.8558 685.46 -12.587 704.84 10.4313 704.84H116.243C121.802 704.84 127.3 703.681 132.387 701.437L321.351 618.082C326.437 615.838 331.936 614.679 337.495 614.679H636.275C645.541 614.679 654.519 617.896 661.677 623.78L753.135 698.966C757.836 702.831 763.357 705.572 769.277 706.981L1134.58 793.913C1137.62 794.635 1140.73 795 1143.84 795H1338.56H1577.59C1582.81 795 1587.98 793.978 1592.81 791.992L1786.7 712.229C1798.05 707.563 1810.9 708.359 1821.58 714.388L1911.69 765.25C1932.94 777.243 1959.88 767.584 1968.67 744.824L2026.31 595.534C2028.09 590.938 2029 586.053 2029 581.126V443.191C2029 423.899 2013.36 408.259 1994.07 408.259C1975.81 408.259 1960.63 394.193 1959.24 375.985L1920 -138.5L-1.5 -144Z" fill="#2A8086"/>
</svg>
