<svg width="33" height="66" viewBox="0 0 33 66" fill="none" xmlns="http://www.w3.org/2000/svg">
<path d="M19.0889 59.1989C18.8404 58.1942 18.9344 56.3394 18.9344 56.3394L14.4519 54.3301C14.4519 54.3301 14.8612 55.5518 14.7611 56.3394C14.6755 57.0123 14.2745 57.2971 14.1428 57.9624C13.9904 58.7322 14.3211 59.2076 14.1428 59.9718C14.0167 60.5121 13.6018 61.2856 13.6018 61.2856C13.6018 61.2856 12.9825 61.1421 12.6744 60.8992C12.2394 60.5561 12.1817 60.1782 11.9788 59.6626C11.4375 58.2864 12.1334 55.8757 11.9788 55.8757C11.8243 55.8757 7.96011 58.5034 7.96011 58.5034C7.96011 58.5034 8.47902 59.6495 8.57838 60.4355C8.73071 61.6403 8.5503 62.4589 9.35121 63.5268C9.68354 63.803 10.3559 63.9905 10.3559 63.9905C10.3559 63.9905 12.5198 65.9999 12.4425 65.4589C12.4425 64.7633 12.288 63.6814 12.288 63.6814C12.288 63.6814 16.925 65.8453 16.925 65.4589C17.0796 64.8406 16.384 63.9905 16.384 63.9905C16.384 63.9905 18.007 64.9952 17.8524 64.5315C17.7444 64.2076 17.5359 63.8502 17.3439 63.5608C17.4287 63.6294 17.5223 63.6771 17.6205 63.6814C18.1641 63.7052 18.0842 62.3675 18.0842 62.3675C18.0842 62.3675 20.6346 63.9905 21.7938 63.9905C22.0587 63.4783 21.9484 62.5221 21.9484 62.5221C21.9484 62.5221 23.8032 63.1404 24.6533 63.0631C24.4988 62.0584 23.7706 61.7815 23.0304 61.131C21.7427 59.9995 19.8618 59.5853 19.0889 59.1989Z" fill="#0A5D69"/>
<path d="M31.9953 0.386598C32.2383 0.486957 32.5312 0.674154 32.7379 0.816374C32.8449 0.88999 32.8125 1.05088 32.6865 1.08204C32.4234 1.14706 32.0465 1.2409 31.7635 1.314C30.3666 1.67483 29.5573 1.80694 28.2084 2.31868C26.53 2.95546 25.5593 3.34273 24.1124 4.40533C23.4396 4.89944 23.0337 5.16351 22.4895 5.79643L22.4831 5.80383C21.6855 6.73126 21.1452 7.35963 21.0211 8.57864C20.9875 8.90892 21.0211 9.42875 21.0211 9.42875C21.0211 9.42875 20.2061 9.93183 19.63 10.1243C18.0843 10.6653 12.4426 8.34676 12.4426 5.87372C13.0609 3.9416 14.2744 2.23653 16.4614 1.314C17.0687 1.0578 17.4332 0.953009 18.0843 0.850298C18.9191 0.71862 19.4045 0.802669 20.2482 0.850298C21.5267 0.922468 22.2141 1.34807 23.4941 1.314C24.4713 1.28799 25.0035 1.0913 25.9672 0.927582C27.5428 0.659915 28.3879 0.131748 29.9859 0.154748C30.7758 0.166116 31.2652 0.0850976 31.9953 0.386598Z" fill="#0A5D69"/>
<path d="M16.6933 9.35129C17.7093 9.79303 19.3665 10.0608 19.7179 10.1142C19.7443 10.1182 19.7526 10.1514 19.7323 10.1686L18.239 11.4379L15.3795 13.6019C15.3795 13.6019 13.4119 15.3202 12.6746 16.7705C12.324 17.4601 12.2389 17.8966 11.979 18.6253C11.3314 20.4416 10.5107 23.3396 10.5107 23.3396C10.5107 23.3396 9.94721 25.355 9.19685 26.4309C8.75669 27.0621 8.38656 27.3175 7.88303 27.8993C7.04093 28.8724 6.3745 29.3 5.79638 30.4496C5.06509 31.904 5.34942 32.7785 5.02354 34.5457C4.59478 36.8708 3.70973 40.8829 3.70973 40.8829V42.0422C3.70973 43.521 3.55348 44.3584 3.70973 45.829C3.86295 47.2712 4.48256 49.4614 4.48256 49.4614L6.19714 54.9623C6.21381 55.0158 6.14081 55.0474 6.11438 54.998C5.78613 54.3842 5.17083 53.2174 4.79169 52.3981C4.25071 50.9297 4.09356 49.5094 3.55516 47.6838C3.32402 46.9001 2.96223 45.7695 2.83151 45.3633C2.81727 45.319 2.75422 45.3214 2.74277 45.3665L1.54579 50.0796C1.54579 50.0796 0.927526 51.7799 0.309259 51.8571C-0.0674992 51.5418 0.0774097 50.6206 0.0774097 50.6206C0.0774097 50.6206 0.811554 48.3319 1.15938 46.8337C1.50613 45.3401 1.55555 44.4734 1.85493 42.9696C1.99939 42.2439 2.11843 41.8444 2.24134 41.1148C2.31863 39.6464 2.39079 37.2055 2.47319 34.7002C2.5387 32.7084 2.34261 31.5719 2.62776 29.5995C2.77767 28.5626 2.91317 27.9879 3.16874 26.9719C3.66701 24.9911 4.10069 23.9183 4.86898 22.0258C5.54452 20.3617 6.10601 19.5085 6.80106 17.8525C7.35202 16.5398 7.49329 15.7328 8.11488 14.452C8.82452 12.9898 9.49291 12.3196 10.2788 10.897C10.8206 9.91628 11.1563 9.37851 11.5926 8.3466C11.9451 7.5131 12.3404 6.2149 12.4259 5.93002C12.4331 5.90598 12.4638 5.90018 12.4795 5.91979C12.6615 6.14762 13.4842 7.16225 14.143 7.72834C15.0384 8.49771 15.6107 8.88058 16.6933 9.35129Z" fill="#0A5D69"/>
<path d="M27.1265 34.0049C26.7557 32.553 25.89 30.3726 25.89 30.3726L23.1851 46.6021C23.1851 46.6021 23.6488 48.766 25.0399 48.3796C25.89 47.9932 26.8174 47.2976 27.2811 46.3702C27.6556 45.6819 27.6698 45.2067 27.8221 44.4381C28.0633 43.2211 28.0487 42.5102 28.0539 41.2695C28.0603 39.7681 27.947 38.9199 27.7497 37.4422L27.7448 37.4053C27.5662 36.0675 27.4606 35.3126 27.1265 34.0049Z" fill="#0A5D69" stroke="#0A5D69" stroke-width="0.154567"/>
<path d="M20.2156 10.246L20.2156 10.246C19.7386 10.723 19.4286 10.988 19.0502 11.3115C18.9254 11.4182 18.7931 11.5313 18.6449 11.6604C18.0869 12.1468 17.5853 12.4486 17.1316 12.7215C17.0873 12.7481 17.0435 12.7745 17.0001 12.8007C16.5153 13.094 16.0717 13.3787 15.5809 13.8759C13.8349 15.6452 12.8563 16.74 12.229 18.9915C11.4594 21.7532 10.3952 25.169 8.68052 27.6432L8.65491 27.6802L8.62311 27.712C8.41984 27.9153 8.19397 28.1262 7.96699 28.3382C7.94837 28.3556 7.92975 28.373 7.91113 28.3904C7.66277 28.6224 7.41206 28.8579 7.17092 29.1014C6.68445 29.5926 6.26569 30.0884 6.01186 30.5961C5.20703 32.2058 4.20984 36.3732 4.20984 40.6512C4.20984 41.4459 4.16186 42.0909 4.11673 42.6975C4.10997 42.7884 4.10327 42.8784 4.09681 42.9679C4.04764 43.6491 4.01086 44.3141 4.05352 45.1637C4.43426 47.8958 4.96593 49.9495 5.80786 52.7057C6.60638 54.9684 7.51864 56.7427 8.39351 58.3558C8.94486 58.2786 9.52424 58.1248 10.0231 57.9572C10.3193 57.8577 10.5802 57.7557 10.7821 57.6665C10.8832 57.6219 10.9666 57.5817 11.0307 57.548C11.0524 57.5365 11.0711 57.5263 11.0869 57.5172C11.0909 57.5029 11.0955 57.4844 11.1006 57.4608C11.1129 57.404 11.1238 57.3371 11.1371 57.2518L11.142 57.2199C11.1534 57.146 11.1665 57.0611 11.1823 56.9758C11.2478 56.6201 11.3954 56.006 11.9979 55.7328C12.211 55.6285 12.4653 55.5732 12.6985 55.532C12.8121 55.5118 12.9626 55.4888 13.1162 55.4653C13.2511 55.4446 13.3883 55.4236 13.505 55.4039C14.0784 55.307 14.7096 55.1606 15.3294 54.825C15.6726 54.6392 16.1131 54.6769 16.415 54.9608C16.6907 55.2199 17.1109 55.5884 17.5578 55.8889C17.9338 56.1417 18.2685 56.3044 18.5247 56.3597C18.5898 56.2695 18.6259 56.1551 18.6586 55.982C18.6669 55.9383 18.675 55.8878 18.6839 55.8317C18.724 55.5807 18.7817 55.2199 18.9508 54.8803C19.2313 54.3169 19.5142 53.9146 19.8032 53.5358C19.8758 53.4406 19.9474 53.3486 20.0189 53.2567C20.2339 52.9803 20.4475 52.7057 20.6825 52.3529C20.9438 51.9606 21.1732 51.6428 21.3831 51.352C21.824 50.7412 22.1787 50.2498 22.5617 49.4385C22.9267 48.1848 23.0796 47.0075 23.1952 45.7422C23.2252 45.414 23.2528 45.0785 23.2811 44.7339C23.3622 43.7454 23.4495 42.6826 23.6177 41.5077C23.9387 39.2658 24.2677 37.195 24.5741 35.2904C24.6152 35.035 24.6559 34.7826 24.6961 34.5333C24.9548 32.9283 25.1933 31.4484 25.393 30.0848C25.5573 27.991 25.6423 26.8221 25.622 24.7357C25.618 24.3186 25.6173 23.9272 25.6166 23.5547C25.613 21.6554 25.6104 20.2486 25.1723 18.4336L25.1722 18.4336L25.1709 18.4276C24.585 15.862 23.9012 14.4533 22.6076 12.1694C22.4558 11.9529 22.3106 11.736 22.1684 11.5237C21.9447 11.1895 21.7285 10.8666 21.506 10.5748C21.3277 10.341 21.1706 10.1626 21.0357 10.0465C20.9169 9.94432 20.8612 9.9303 20.859 9.92873C20.6458 9.92996 20.5275 9.98162 20.4555 10.0266C20.3866 10.0697 20.3479 10.1098 20.286 10.174C20.2657 10.1951 20.2429 10.2187 20.2156 10.246ZM19.8622 9.89249L19.8621 9.89241L19.8622 9.89249Z" fill="white" stroke="#0A5D69"/>
</svg>
