<svg preserveAspectRatio="none" height="493" viewBox="0 0 1920 493" fill="none" xmlns="http://www.w3.org/2000/svg">
<path d="M122.95 143.296L7.16623 255.477C-0.610275 263.011 -5 273.376 -5 284.204V402.84C-5 424.931 12.9086 442.84 35 442.84H104.673H441.5H740.28H970.221C974.757 442.84 979.26 443.611 983.537 445.121L1112.69 490.718C1116.97 492.228 1121.47 493 1126 493H1312.33C1316.46 493 1320.56 492.361 1324.49 491.106L1566.86 413.734C1570.8 412.479 1574.9 411.84 1579.03 411.84H1833H1933.77C1947.59 411.84 1960.44 404.7 1967.74 392.957L2002.97 336.278C2006.91 329.94 2009 322.625 2009 315.161V186.259C2009 164.168 1991.09 146.259 1969 146.259H1954.9C1946.33 146.259 1937.98 143.507 1931.09 138.408L1796.28 38.5969C1788.78 33.0413 1779.57 30.2857 1770.24 30.8077L1588.48 40.9852C1578.4 41.5495 1568.91 45.9045 1561.9 53.1763L1447.51 171.968C1439.97 179.798 1429.57 184.222 1418.7 184.222H1331.22C1322.98 184.222 1314.94 181.677 1308.2 176.936L1214.25 110.838C1207.52 106.096 1199.48 103.552 1191.24 103.552H991.378C982.129 103.552 973.166 106.757 966.014 112.622L826.117 227.349C818.966 233.214 810.002 236.42 800.753 236.42H621.477C612.84 236.42 604.436 233.625 597.52 228.452L479.243 139.991C472.327 134.819 463.922 132.024 455.286 132.024H150.784C140.394 132.024 130.412 136.066 122.95 143.296Z" fill="#2A8086"/>
<path d="M123.177 104.983L8.24899 208.365C-0.184137 215.951 -5 226.761 -5 238.104V343.292C-5 365.384 12.9086 383.292 35 383.292H96.7997C101.999 383.292 107.148 382.279 111.959 380.308L301.778 302.569C306.589 300.599 311.739 299.585 316.938 299.585H617.086C625.856 299.585 634.383 302.467 641.354 307.788L729.532 375.089C736.503 380.41 745.03 383.292 753.8 383.292H966.167C973.308 383.292 980.319 385.204 986.472 388.829L1109.75 461.463C1115.91 465.088 1122.92 467 1130.06 467H1310.61C1315.86 467 1321.05 465.968 1325.9 463.962L1435.71 418.538L1567.9 384.552C1571.15 383.716 1574.5 383.292 1577.86 383.292H1772.25C1780.34 383.292 1788.24 380.839 1794.9 376.256L1931.46 282.39C1938.13 277.807 1946.03 275.354 1954.12 275.354H1969C1991.09 275.354 2009 257.445 2009 235.354V147.939C2009 125.847 1991.09 107.939 1969 107.939H1954.12C1946.03 107.939 1938.13 105.485 1931.46 100.902L1795.85 7.68683C1788.6 2.70181 1779.91 0.247621 1771.12 0.704499L1587.73 10.2382C1578.1 10.7386 1568.98 14.6979 1562.04 21.3878L1447.33 131.98C1439.87 139.168 1429.92 143.184 1419.57 143.184H1330.46C1322.69 143.184 1315.09 140.921 1308.59 136.672L1213.87 74.7992C1207.36 70.5504 1199.76 68.2877 1191.99 68.2877H990.569C981.815 68.2877 973.302 71.1595 966.337 76.4626L825.794 183.471C818.829 188.774 810.316 191.646 801.562 191.646H620.699C612.544 191.646 604.583 189.153 597.885 184.502L478.878 101.866C472.179 97.2145 464.219 94.7217 456.063 94.7217H149.928C140.05 94.7217 130.521 98.3769 123.177 104.983Z" fill="#2A808D" fill-opacity="0.3"/>
</svg>