<svg preserveAspectRatio="none" height="795" viewBox="0 0 1920 795" fill="none" xmlns="http://www.w3.org/2000/svg">
<path d="M-1.5 -174L-21.5 497L-29.4991 632.482C-30.8558 655.46 -12.587 674.84 10.4313 674.84H116.243C121.802 674.84 127.3 673.681 132.387 671.437L321.351 588.082C326.437 585.838 331.936 584.679 337.495 584.679H636.275C645.541 584.679 654.519 587.896 661.677 593.78L753.135 668.966C757.836 672.831 763.357 675.572 769.277 676.981L1134.58 763.913C1137.62 764.635 1140.73 765 1143.84 765H1338.56H1577.59C1582.81 765 1587.98 763.978 1592.81 761.992L1787.35 681.966C1798.32 677.45 1810.74 678.042 1821.23 683.582L1902.68 726.566C1922.77 737.171 1947.65 728.93 1957.44 708.427L2025.1 566.756C2027.67 561.374 2029 555.484 2029 549.519V413.191C2029 393.899 2013.36 378.259 1994.07 378.259C1975.81 378.259 1960.63 364.193 1959.24 345.985L1920 -168.5L-1.5 -174Z" fill="#2A8086"/>
<path opacity="0.3" d="M-1.5 -4L-21.5 566.957L-29.0324 675.513C-30.637 698.639 -12.3098 718.282 10.8717 718.282H117.414C122.214 718.282 126.976 717.418 131.47 715.731L322.268 644.115C326.762 642.428 331.523 641.564 336.324 641.564H638.005C646.207 641.564 654.211 644.086 660.933 648.787L753.454 713.508C757.956 716.657 763.059 718.845 768.444 719.935L1135.22 794.204C1137.83 794.733 1140.49 795 1143.16 795H1338.56H1578.7C1583.2 795 1587.67 794.241 1591.92 792.754L1789.05 723.749C1799.05 720.248 1810.03 720.858 1819.58 725.446L1915.15 771.345C1935.37 781.057 1959.62 772.244 1968.89 751.817L2025.43 627.234C2027.78 622.042 2029 616.407 2029 610.705V501.075C2029 481.66 2013.26 465.92 1993.85 465.92C1975.65 465.92 1960.46 452.031 1958.83 433.904L1920 0.679979L-1.5 -4Z" fill="#2A8086"/>
</svg>
