<svg preserveAspectRatio="none" height="765" viewBox="0 20 1920 765" fill="#2A8086" xmlns="http://www.w3.org/2000/svg">
<path d="M-1.5 -174L-21.5 497L-29.4991 632.482C-30.8558 655.46 -12.587 674.84 10.4313 674.84H116.243C121.802 674.84 127.3 673.681 132.387 671.437L321.351 588.082C326.437 585.838 331.936 584.679 337.495 584.679H636.275C645.541 584.679 654.519 587.896 661.677 593.78L753.135 668.966C757.836 672.831 763.357 675.572 769.277 676.981L1134.58 763.913C1137.62 764.635 1140.73 765 1143.84 765H1338.56H1577.59C1582.81 765 1587.98 763.978 1592.81 761.992L1787.35 681.966C1798.32 677.45 1810.74 678.042 1821.23 683.582L1902.68 726.566C1922.77 737.171 1947.65 728.93 1957.44 708.427L2025.1 566.756C2027.67 561.374 2029 555.484 2029 549.519V413.191C2029 393.899 2013.36 378.259 1994.07 378.259C1975.81 378.259 1960.63 364.193 1959.24 345.985L1920 -168.5L-1.5 -174Z" fill="#2A8086"/>
</svg>
