<!-- <svg width="229" height="221" viewBox="0 0 229 221" fill="none" xmlns="http://www.w3.org/2000/svg">
<path d="M208.771 45.8713C228.621 72.65 234.135 109.15 223.842 137.212C213.549 165.275 187.817 185.084 158.225 200.49C128.817 215.897 95.5484 227.086 67.2429 217.365C38.9373 207.827 15.4106 177.747 5.30151 142.164C-4.62382 106.582 -1.13158 65.4968 20.1895 38.5347C41.6944 11.3893 80.8442 -1.81665 117.788 0.200917C154.549 2.21848 188.92 19.2761 208.771 45.8713Z" fill="#B9D5D9" fill-opacity="0.2"/>
</svg> -->

<svg width="110" height="103" viewBox="0 0 110 103" fill="none" xmlns="http://www.w3.org/2000/svg">
<g filter="url(#filter0_d)">
<path d="M92.0779 23.2277C99.8821 33.2848 102.05 46.9928 98.0033 57.5322C93.9567 68.0715 83.84 75.511 72.2059 81.2973C60.6441 87.0836 47.5647 91.2856 36.4364 87.6347C25.3082 84.0527 16.0587 72.7556 12.0843 59.3921C8.18215 46.0285 9.55512 30.5983 17.9375 20.4723C26.3921 10.2774 41.7838 5.31773 56.3084 6.07546C70.7607 6.83319 84.2736 13.2394 92.0779 23.2277Z" fill="#C5E1E6"/>
</g>
<defs>
<filter id="filter0_d" x="0" y="0" width="110" height="103" filterUnits="userSpaceOnUse" color-interpolation-filters="sRGB">
<feFlood flood-opacity="0" result="BackgroundImageFix"/>
<feColorMatrix in="SourceAlpha" type="matrix" values="0 0 0 0 0 0 0 0 0 0 0 0 0 0 0 0 0 0 127 0"/>
<feOffset dy="4"/>
<feGaussianBlur stdDeviation="5"/>
<feColorMatrix type="matrix" values="0 0 0 0 0.772549 0 0 0 0 0.882353 0 0 0 0 0.898039 0 0 0 1 0"/>
<feBlend mode="normal" in2="BackgroundImageFix" result="effect1_dropShadow"/>
<feBlend mode="normal" in="SourceGraphic" in2="effect1_dropShadow" result="shape"/>
</filter>
</defs>
</svg>
