<svg height="346" viewBox="0 0 auto 346" fill="none" xmlns="http://www.w3.org/2000/svg">
<path d="M-333.05 46.2959L-448.834 158.477C-456.61 166.011 -461 176.376 -461 187.204V305.84C-461 327.931 -443.091 345.84 -421 345.84H-351.327H-14.5H284.28H514.221C518.757 345.84 523.26 346.611 527.537 348.121L656.688 393.718C660.966 395.228 665.469 396 670.005 396H856.327C860.455 396 864.559 395.361 868.491 394.106L1110.86 316.734C1114.8 315.479 1118.9 314.84 1123.03 314.84H1377H1477.77C1491.59 314.84 1504.44 307.7 1511.74 295.957L1546.97 239.278C1550.91 232.94 1553 225.625 1553 218.161V89.2594C1553 67.168 1535.09 49.2594 1513 49.2594H1498.9C1490.33 49.2594 1481.98 46.507 1475.09 41.4077L1340.28 -58.4031C1332.78 -63.9587 1323.57 -66.7143 1314.24 -66.1923L1132.48 -56.0148C1122.4 -55.4505 1112.91 -51.0955 1105.9 -43.8237L991.508 74.968C983.968 82.7978 973.566 87.2217 962.696 87.2217H875.218C866.979 87.2217 858.94 84.6772 852.202 79.9361L758.254 13.8375C751.515 9.09635 743.476 6.55189 735.237 6.55189H535.378C526.129 6.55189 517.166 9.75728 510.014 15.6225L370.117 130.349C362.966 136.214 354.002 139.42 344.753 139.42H165.477C156.84 139.42 148.436 136.625 141.52 131.452L23.2426 42.9915C16.3265 37.8188 7.92203 35.0236 -0.714447 35.0236H-305.216C-315.606 35.0236 -325.588 39.0662 -333.05 46.2959Z" fill="#2A8086"/>
<path d="M-332.823 7.98313L-447.751 111.365C-456.184 118.951 -461 129.761 -461 141.104V246.292C-461 268.384 -443.091 286.292 -421 286.292H-359.2C-354.001 286.292 -348.852 285.279 -344.041 283.308L-154.222 205.569C-149.411 203.599 -144.261 202.585 -139.062 202.585H161.086C169.856 202.585 178.383 205.467 185.354 210.788L273.532 278.089C280.503 283.41 289.03 286.292 297.8 286.292H510.167C517.308 286.292 524.319 288.204 530.472 291.829L653.754 364.463C659.906 368.088 666.917 370 674.058 370H854.61C859.857 370 865.052 368.968 869.9 366.962L979.708 321.538L1111.9 287.552C1115.15 286.716 1118.5 286.292 1121.86 286.292H1316.25C1324.34 286.292 1332.24 283.839 1338.9 279.256L1475.46 185.39C1482.13 180.807 1490.03 178.354 1498.12 178.354H1513C1535.09 178.354 1553 160.445 1553 138.354V50.9387C1553 28.8473 1535.09 10.9387 1513 10.9387H1498.12C1490.03 10.9387 1482.13 8.4853 1475.46 3.9024L1339.85 -89.3132C1332.6 -94.2982 1323.91 -96.7524 1315.12 -96.2955L1131.73 -86.7618C1122.1 -86.2614 1112.98 -82.3021 1106.04 -75.6122L991.329 34.9804C983.874 42.1679 973.922 46.184 963.566 46.184H874.464C866.694 46.184 859.093 43.9213 852.589 39.6725L757.867 -22.2008C751.362 -26.4496 743.761 -28.7123 735.992 -28.7123H534.569C525.815 -28.7123 517.302 -25.8405 510.337 -20.5374L369.794 86.4714C362.829 91.7744 354.316 94.6462 345.562 94.6462H164.699C156.544 94.6462 148.583 92.1535 141.885 87.502L22.8777 4.86592C16.179 0.21447 8.2186 -2.2783 0.063324 -2.2783H-306.072C-315.95 -2.2783 -325.479 1.37686 -332.823 7.98313Z" fill="#2A808D" fill-opacity="0.3"/>
</svg>
