<svg width="245" height="245" viewBox="0 0 245 245" fill="none" xmlns="http://www.w3.org/2000/svg">
<g filter="url(#filter0_d)">
<circle cx="122.5" cy="120.5" r="72.5" fill="white"/>
</g>
<path opacity="0.8" d="M102 118H108V137H102V118Z" fill="#216E7A"/>
<path d="M150.427 125.815C149.49 125.122 148.239 124.92 146.992 125.265L131.703 129.492C131.891 129.028 132 128.523 132 127.991C132 125.79 130.206 124 128 124H118.623C117.957 123 116.261 120 114 120H110V119C110 117.346 108.654 116 107 116H103C101.346 116 100 117.346 100 119V136C100 137.654 101.346 139 103 139H107C108.654 139 110 137.655 110 136V135.248L122.139 143.45C123.663 144.482 125.437 145 127.214 145C128.856 145 130.501 144.558 131.956 143.669L150.129 132.568C151.283 131.865 152 130.587 152 129.235V128.922C152 127.691 151.427 126.559 150.427 125.815ZM108 136C108 136.552 107.551 137 107 137H106V133H104V137H103C102.449 137 102 136.552 102 136V119C102 118.448 102.449 118 103 118H107C107.551 118 108 118.449 108 119V136ZM150 129.235C150 129.895 149.65 130.518 149.087 130.862L130.914 141.962C128.549 143.405 125.545 143.34 123.26 141.793L110 132.835V122H114C115.059 122 116.469 124.034 117.088 125.409L117.354 126H128C129.103 126 130 126.893 130 127.99C130 129.098 129.103 130 128 130H118V132H128H130L147.524 127.193C148.165 127.015 148.804 127.1 149.234 127.422C149.721 127.783 150 128.33 150 128.922V129.235Z" fill="#216E7A"/>
<path d="M133 119C135.631 119 146 112.441 146 104C146 100.141 142.86 97 139 97C136.457 97 134.226 98.363 133 100.397C131.774 98.363 129.543 97 127 97C123.14 97 120 100.141 120 104C120 112.441 130.369 119 133 119ZM127 99C129.757 99 132 101 132 104H134C134 101 136.243 99 139 99C141.757 99 144 101.243 144 104C144 111.563 134.321 117 133 117C131.679 117 122 111.563 122 104C122 101.243 124.243 99 127 99Z" fill="#216E7A"/>
<defs>
<filter id="filter0_d" x="0" y="0" width="245" height="245" filterUnits="userSpaceOnUse" color-interpolation-filters="sRGB">
<feFlood flood-opacity="0" result="BackgroundImageFix"/>
<feColorMatrix in="SourceAlpha" type="matrix" values="0 0 0 0 0 0 0 0 0 0 0 0 0 0 0 0 0 0 127 0"/>
<feOffset dy="2"/>
<feGaussianBlur stdDeviation="25"/>
<feColorMatrix type="matrix" values="0 0 0 0 0 0 0 0 0 0 0 0 0 0 0 0 0 0 0.06 0"/>
<feBlend mode="normal" in2="BackgroundImageFix" result="effect1_dropShadow"/>
<feBlend mode="normal" in="SourceGraphic" in2="effect1_dropShadow" result="shape"/>
</filter>
</defs>
</svg>
