<svg width="245" height="245" viewBox="0 0 245 245" fill="none" xmlns="http://www.w3.org/2000/svg">
<g filter="url(#filter0_d)">
<circle cx="122.5" cy="120.5" r="72.5" fill="white"/>
</g>
<path d="M112 101C109.09 101 106.609 103.07 106.156 105.875C106.145 105.941 106.102 105.996 106.094 106.062H106.125C106.09 106.215 106.051 106.355 106.031 106.5C105.727 106.711 105.434 106.938 105.188 107.188C104.012 108.375 103.516 109.867 103.156 111.094C103.152 111.102 103.16 111.117 103.156 111.125C101.859 115.113 99.5352 124.555 99 126.719C98.375 128.023 98 129.461 98 131C98 136.512 102.488 141 108 141C113.387 141 117.77 136.715 117.969 131.375C119.102 132.211 120.742 133 123 133C125.258 133 126.898 132.211 128.031 131.375C128.23 136.715 132.613 141 138 141C143.512 141 148 136.512 148 131C148 129.871 147.816 128.793 147.469 127.781C147.305 127.125 144.352 115.391 143.062 111.125V111.094C142.656 109.875 142.117 108.383 140.938 107.188C140.645 106.891 140.312 106.617 139.938 106.375C139.918 106.27 139.902 106.172 139.875 106.062H139.906C139.898 105.996 139.855 105.941 139.844 105.875C139.391 103.07 136.91 101 134 101C130.676 101 128 103.676 128 107C128 107.734 128.121 108.445 128.344 109.094C127.879 109.633 127.488 110.121 127.219 110.375C127.105 110.48 127.098 110.477 127.062 110.5C125.926 109.664 124.555 109.094 123.094 109.094C121.637 109.094 120.203 109.617 119.094 110.5C119.055 110.477 119.051 110.48 118.938 110.375C118.645 110.102 118.203 109.566 117.688 108.969C117.887 108.352 118 107.691 118 107C118 103.676 115.324 101 112 101ZM112 103C114.277 103 116 104.723 116 107C116 107.086 115.973 107.164 115.969 107.25C114.699 106.16 113.066 105.188 110.906 105.188C109.938 105.188 109.07 105.281 108.312 105.469C108.863 104.016 110.293 103 112 103ZM134 103C135.691 103 137.094 104.004 137.656 105.438C136.957 105.277 136.188 105.188 135.312 105.188C133.07 105.188 131.336 106.23 130.031 107.375C130.02 107.246 130 107.125 130 107C130 104.723 131.723 103 134 103ZM110.906 107.188C112.902 107.188 114.281 108.262 115.438 109.469C115.449 109.973 115.84 110.391 116.344 110.438C116.77 110.934 117.176 111.422 117.594 111.812C117.879 112.078 118.168 112.332 118.625 112.469C119.082 112.605 119.73 112.504 120.125 112.188L120.156 112.156C120.824 111.562 122.051 111.094 123.094 111.094C124.137 111.094 125.234 111.523 126.062 112.188V112.156H126.094C126.48 112.473 127.117 112.605 127.562 112.469C128.02 112.328 128.281 112.078 128.562 111.812C128.984 111.414 129.402 110.914 129.844 110.406C130.191 110.301 130.457 110.012 130.531 109.656C131.738 108.371 133.207 107.188 135.312 107.188C136.629 107.188 137.566 107.387 138.281 107.719C138.402 107.84 138.555 107.926 138.719 107.969C138.75 107.98 138.781 107.992 138.812 108C139.082 108.176 139.324 108.383 139.531 108.594C140.32 109.395 140.766 110.516 141.156 111.688C141.16 111.695 141.152 111.711 141.156 111.719C141.926 114.27 143.207 119.117 144.25 123.188C142.535 121.809 140.363 121 138 121C133.469 121 129.629 124.043 128.406 128.188C128.332 128.25 128.27 128.324 128.219 128.406C128.219 128.406 126.93 131 123 131C119.07 131 117.781 128.406 117.781 128.406C117.73 128.312 117.668 128.23 117.594 128.156C116.363 124.027 112.523 121 108 121C105.734 121 103.648 121.758 101.969 123.031C103.004 118.969 104.258 114.195 105.062 111.719V111.688C105.402 110.523 105.805 109.395 106.594 108.594C107.383 107.793 108.594 107.188 110.906 107.188ZM123 121C120.801 121 119 122.801 119 125C119 127.199 120.801 129 123 129C125.199 129 127 127.199 127 125C127 122.801 125.199 121 123 121ZM108 123C112.43 123 116 126.57 116 131C116 135.43 112.43 139 108 139C103.57 139 100 135.43 100 131C100 130.398 100.062 129.812 100.188 129.25C100.387 129.098 100.52 128.875 100.562 128.625C100.562 128.625 100.824 127.547 100.875 127.344C102.199 124.762 104.891 123 108 123ZM123 123C124.117 123 125 123.883 125 125C125 126.117 124.117 127 123 127C121.883 127 121 126.117 121 125C121 123.883 121.883 123 123 123ZM138 123C141.484 123 144.43 125.215 145.531 128.312C145.535 128.328 145.625 128.656 145.625 128.656C145.652 128.758 145.695 128.852 145.75 128.938C145.926 129.594 146 130.285 146 131C146 135.43 142.43 139 138 139C133.57 139 130 135.43 130 131C130 126.57 133.57 123 138 123ZM102.906 129.969C102.863 129.977 102.82 129.988 102.781 130C102.316 130.105 101.988 130.523 102 131C102 134.324 104.676 137 108 137C108.359 137.004 108.695 136.816 108.879 136.504C109.059 136.191 109.059 135.809 108.879 135.496C108.695 135.184 108.359 134.996 108 135C105.723 135 104 133.277 104 131C104.012 130.711 103.895 130.434 103.688 130.238C103.477 130.039 103.191 129.941 102.906 129.969ZM133.906 129.969C133.863 129.977 133.82 129.988 133.781 130C133.316 130.105 132.988 130.523 133 131C133 134.324 135.676 137 139 137C139.359 137.004 139.695 136.816 139.879 136.504C140.059 136.191 140.059 135.809 139.879 135.496C139.695 135.184 139.359 134.996 139 135C136.723 135 135 133.277 135 131C135.012 130.711 134.895 130.434 134.688 130.238C134.477 130.039 134.191 129.941 133.906 129.969Z" fill="#216E7A"/>
<circle opacity="0.8" cx="108" cy="131" r="8" fill="#216E7A"/>
<circle opacity="0.8" cx="138" cy="131" r="8" fill="#216E7A"/>
<path d="M103.982 130.811C103.877 130.268 103.353 129.914 102.811 130.018C102.268 130.123 101.914 130.647 102.018 131.189L103.982 130.811ZM107.881 136.993C108.43 137.059 108.927 136.667 108.993 136.119C109.059 135.57 108.667 135.073 108.119 135.007L107.881 136.993ZM102.018 131.189C102.36 132.964 102.837 134.369 103.814 135.358C104.811 136.367 106.171 136.788 107.881 136.993L108.119 135.007C106.562 134.821 105.756 134.478 105.237 133.952C104.698 133.407 104.309 132.508 103.982 130.811L102.018 131.189Z" fill="white"/>
<path d="M133.982 130.811C133.877 130.268 133.353 129.914 132.811 130.018C132.268 130.123 131.914 130.647 132.018 131.189L133.982 130.811ZM137.881 136.993C138.43 137.059 138.927 136.667 138.993 136.119C139.059 135.57 138.667 135.073 138.119 135.007L137.881 136.993ZM132.018 131.189C132.36 132.964 132.837 134.369 133.814 135.358C134.811 136.367 136.171 136.788 137.881 136.993L138.119 135.007C136.562 134.821 135.756 134.478 135.237 133.952C134.698 133.407 134.309 132.508 133.982 130.811L132.018 131.189Z" fill="white"/>
<defs>
<filter id="filter0_d" x="0" y="0" width="245" height="245" filterUnits="userSpaceOnUse" color-interpolation-filters="sRGB">
<feFlood flood-opacity="0" result="BackgroundImageFix"/>
<feColorMatrix in="SourceAlpha" type="matrix" values="0 0 0 0 0 0 0 0 0 0 0 0 0 0 0 0 0 0 127 0"/>
<feOffset dy="2"/>
<feGaussianBlur stdDeviation="25"/>
<feColorMatrix type="matrix" values="0 0 0 0 0 0 0 0 0 0 0 0 0 0 0 0 0 0 0.06 0"/>
<feBlend mode="normal" in2="BackgroundImageFix" result="effect1_dropShadow"/>
<feBlend mode="normal" in="SourceGraphic" in2="effect1_dropShadow" result="shape"/>
</filter>
</defs>
</svg>
