<svg width="245" height="245" viewBox="0 0 245 245" fill="none" xmlns="http://www.w3.org/2000/svg">
<g filter="url(#filter0_d)">
<circle cx="122.5" cy="120.5" r="72.5" fill="white"/>
</g>
<path opacity="0.8" d="M124.422 122.46C123.656 121.629 122.344 121.629 121.579 122.46L116.351 128.137C114.64 129.995 115.957 133 118.483 133H127.517C130.043 133 131.36 129.995 129.649 128.137L124.422 122.46Z" fill="#216E7A"/>
<path opacity="0.8" d="M132 124C133.657 124 135 122.657 135 121C135 119.343 133.657 118 132 118C130.343 118 129 119.343 129 121C129 122.657 130.343 124 132 124Z" fill="#216E7A"/>
<path opacity="0.8" d="M114 124C115.657 124 117 122.657 117 121C117 119.343 115.657 118 114 118C112.343 118 111 119.343 111 121C111 122.657 112.343 124 114 124Z" fill="#216E7A"/>
<path opacity="0.8" d="M123 120C124.657 120 126 118.657 126 117C126 115.343 124.657 114 123 114C121.343 114 120 115.343 120 117C120 118.657 121.343 120 123 120Z" fill="#216E7A"/>
<path d="M136 97.105C130.2 97.105 125.078 100.965 123 106.503C120.922 100.965 115.8 97.105 110 97.105C102.28 97.105 96 103.779 96 111.982C96 128.001 109.418 138.747 117.417 143.727C119.139 144.799 121.069 145.335 123 145.335C124.931 145.335 126.861 144.799 128.583 143.727C136.582 138.747 150 128.001 150 111.982C150 103.779 143.72 97.105 136 97.105ZM127.526 142.03C124.734 143.768 121.266 143.766 118.474 142.03C110.828 137.269 98 127.034 98 111.982C98 104.881 103.383 99.105 110 99.105C115.917 99.105 121.017 103.846 121.861 110.132L121.978 111H124.022L124.139 110.133C124.983 103.847 130.083 99.105 136 99.105C142.617 99.105 148 104.881 148 111.982C148 127.034 135.172 137.269 127.526 142.03Z" fill="#216E7A"/>
<path d="M137 102V104C140.309 104 143 106.691 143 110H145C145 105.589 141.411 102 137 102Z" fill="#216E7A"/>
<path d="M137 106V108C138.103 108 139 108.897 139 110H141C141 107.794 139.206 106 137 106Z" fill="#216E7A"/>
<defs>
<filter id="filter0_d" x="0" y="0" width="245" height="245" filterUnits="userSpaceOnUse" color-interpolation-filters="sRGB">
<feFlood flood-opacity="0" result="BackgroundImageFix"/>
<feColorMatrix in="SourceAlpha" type="matrix" values="0 0 0 0 0 0 0 0 0 0 0 0 0 0 0 0 0 0 127 0"/>
<feOffset dy="2"/>
<feGaussianBlur stdDeviation="25"/>
<feColorMatrix type="matrix" values="0 0 0 0 0 0 0 0 0 0 0 0 0 0 0 0 0 0 0.06 0"/>
<feBlend mode="normal" in2="BackgroundImageFix" result="effect1_dropShadow"/>
<feBlend mode="normal" in="SourceGraphic" in2="effect1_dropShadow" result="shape"/>
</filter>
</defs>
</svg>
