<svg width="245" height="245" viewBox="0 0 245 245" fill="none" xmlns="http://www.w3.org/2000/svg">
<g filter="url(#filter0_d)">
<circle cx="122.5" cy="120.5" r="72.5" fill="white"/>
</g>
<g clip-path="url(#clip0)">
<path opacity="0.8" d="M100 119H106V138H100V119Z" fill="#216E7A"/>
<path d="M148.427 126.815C147.49 126.122 146.239 125.92 144.992 126.265L129.703 130.492C129.891 130.028 130 129.523 130 128.991C130 126.79 128.206 125 126 125H116.623C115.957 124 114.261 121 112 121H108V120C108 118.346 106.654 117 105 117H101C99.346 117 98 118.346 98 120V137C98 138.654 99.346 140 101 140H105C106.654 140 108 138.655 108 137V136.248L120.139 144.45C121.663 145.482 123.437 146 125.214 146C126.856 146 128.501 145.558 129.956 144.669L148.129 133.568C149.283 132.865 150 131.587 150 130.235V129.922C150 128.691 149.427 127.559 148.427 126.815ZM106 137C106 137.552 105.551 138 105 138H104V134H102V138H101C100.449 138 100 137.552 100 137V120C100 119.448 100.449 119 101 119H105C105.551 119 106 119.449 106 120V137ZM148 130.235C148 130.895 147.65 131.518 147.087 131.862L128.914 142.962C126.549 144.405 123.545 144.34 121.26 142.793L108 133.835V123H112C113.059 123 114.469 125.034 115.088 126.409L115.354 127H126C127.103 127 128 127.893 128 128.99C128 130.098 127.103 131 126 131H116V133H126H128L145.524 128.193C146.165 128.015 146.804 128.1 147.234 128.422C147.721 128.783 148 129.33 148 129.922V130.235Z" fill="#216E7A"/>
<path opacity="0.8" d="M130.5 107.233C129.733 107.233 128.998 107.538 128.456 108.08C127.914 108.622 127.61 109.357 127.61 110.123C127.61 110.89 127.914 111.625 128.456 112.167C128.998 112.709 129.733 113.013 130.5 113.013C131.266 113.013 132.001 112.709 132.543 112.167C133.085 111.625 133.39 110.89 133.39 110.123C133.39 109.357 133.085 108.622 132.543 108.08C132.001 107.538 131.266 107.233 130.5 107.233Z" fill="#216E7A"/>
<path d="M141.194 100.562C139.603 99.2551 137.524 98.8435 135 99.3412C133.431 99.6846 132.346 100.182 131.589 100.723L131.078 100.443V98.5631C131.078 98.4185 131.095 98.2295 131.18 98.1457C131.353 97.974 131.965 97.9797 132.502 97.9832L135.125 97.9855C137.355 97.9855 139.172 96.1702 139.172 93.9398V91.0469H133.968C132.496 91.0469 131.207 91.8406 130.5 93.02C129.792 91.8406 128.504 91.0469 127.032 91.0469H121.828V93.9398C121.828 96.1702 123.644 97.9855 125.875 97.9855L128.497 97.9838C129.037 97.9797 129.647 97.9745 129.82 98.1462C129.904 98.2301 129.922 98.4191 129.922 98.5637V100.444L129.375 100.746C128.618 100.208 127.538 99.7153 125.988 99.3753C123.476 98.881 121.393 99.2915 119.8 100.599C116.665 103.177 116.629 108.277 116.629 108.492C116.629 113.018 119.642 117.691 123.638 119.362C124.585 119.758 125.521 119.955 126.424 119.955C127.902 119.955 129.292 119.429 130.5 118.394C132.445 120.057 134.858 120.404 137.355 119.36C141.355 117.687 144.372 113.008 144.372 108.477C144.371 108.261 144.336 103.145 141.194 100.562ZM133.968 92.2031H138.015V93.9398C138.015 95.5331 136.718 96.8299 135.125 96.8299L132.512 96.8281C131.998 96.8264 131.367 96.8235 131.078 96.9368V96.8299C131.078 95.8736 131.856 95.0937 132.812 95.0937H134.547V93.9375H132.812C132.192 93.9375 131.62 94.1375 131.149 94.4711C131.435 93.1767 132.589 92.2031 133.968 92.2031ZM128.768 96.827C128.676 96.827 128.583 96.8275 128.489 96.8281L125.875 96.8293C124.282 96.8293 122.984 95.5325 122.984 93.9392V92.2031H127.032C128.411 92.2031 129.564 93.1767 129.85 94.4711C129.379 94.1375 128.808 93.9375 128.188 93.9375H126.453V95.0937H128.188C129.144 95.0937 129.922 95.8736 129.922 96.8293V96.9345C129.344 96.8408 129.18 96.827 128.768 96.827ZM136.909 118.293C134.692 119.221 132.56 118.83 130.906 117.197L130.5 116.797L130.094 117.197C128.436 118.833 126.302 119.224 124.083 118.296C120.551 116.819 117.784 112.512 117.784 108.492C117.784 108.444 117.816 103.726 120.534 101.492C121.476 100.717 122.651 100.329 124.034 100.329C124.575 100.329 125.148 100.388 125.752 100.507C129.217 101.266 129.922 102.783 129.922 103.436V103.766H131.078V103.359C131.078 102.582 131.892 101.206 135.236 100.473C137.392 100.047 139.147 100.378 140.457 101.453C143.176 103.684 143.216 108.43 143.216 108.477C143.216 112.503 140.445 116.814 136.909 118.293Z" fill="#216E7A"/>
</g>
<defs>
<filter id="filter0_d" x="0" y="0" width="245" height="245" filterUnits="userSpaceOnUse" color-interpolation-filters="sRGB">
<feFlood flood-opacity="0" result="BackgroundImageFix"/>
<feColorMatrix in="SourceAlpha" type="matrix" values="0 0 0 0 0 0 0 0 0 0 0 0 0 0 0 0 0 0 127 0"/>
<feOffset dy="2"/>
<feGaussianBlur stdDeviation="25"/>
<feColorMatrix type="matrix" values="0 0 0 0 0.72549 0 0 0 0 0.835294 0 0 0 0 0.85098 0 0 0 0.6 0"/>
<feBlend mode="normal" in2="BackgroundImageFix" result="effect1_dropShadow"/>
<feBlend mode="normal" in="SourceGraphic" in2="effect1_dropShadow" result="shape"/>
</filter>
<clipPath id="clip0">
<rect width="64" height="64" fill="white" transform="translate(92 90)"/>
</clipPath>
</defs>
</svg>
