<svg width="245" height="245" viewBox="0 0 245 245" fill="none" xmlns="http://www.w3.org/2000/svg">
<g filter="url(#filter0_d)">
<circle cx="122.5" cy="120.5" r="72.5" fill="white"/>
</g>
<path d="M116 121C117.105 121 118 120.105 118 119C118 117.895 117.105 117 116 117C114.895 117 114 117.895 114 119C114 120.105 114.895 121 116 121Z" fill="#216E7A"/>
<path d="M130 121C131.105 121 132 120.105 132 119C132 117.895 131.105 117 130 117C128.895 117 128 117.895 128 119C128 120.105 128.895 121 130 121Z" fill="#216E7A"/>
<path d="M120.5 129C121.881 129 123 128.328 123 127.5C123 126.672 121.881 126 120.5 126C119.119 126 118 126.672 118 127.5C118 128.328 119.119 129 120.5 129Z" fill="#216E7A"/>
<path opacity="0.8" d="M143 119H139V113H143C144.105 113 145 113.895 145 115V117C145 118.105 144.105 119 143 119Z" fill="#216E7A"/>
<path d="M125.5 129C126.881 129 128 128.328 128 127.5C128 126.672 126.881 126 125.5 126C124.119 126 123 126.672 123 127.5C123 128.328 124.119 129 125.5 129Z" fill="#216E7A"/>
<path opacity="0.8" d="M103 119H107V113H103C101.895 113 101 113.895 101 115V117C101 118.105 101.895 119 103 119Z" fill="#216E7A"/>
<path opacity="0.8" d="M138.99 112.44C138.69 107.18 134.33 103 129 103C127.34 103 125.84 103.67 124.76 104.76C123.67 105.84 123 107.34 123 109C123 107.34 122.33 105.84 121.24 104.76C120.16 103.67 118.66 103 117 103C111.67 103 107.31 107.18 107.01 112.44C107.15 108.24 108.91 104.46 111.68 101.68C114.61 98.7599 118.53 96.9599 123 96.9999C127.47 96.9599 131.39 98.7599 134.32 101.68C137.09 104.46 138.85 108.24 138.99 112.44Z" fill="#216E7A"/>
<path d="M144 109H139.53C138.807 105.989 137.269 103.223 135.026 100.972C131.805 97.762 127.583 96 123.125 96C123.041 96 122.957 95.999 122.875 96C118.417 96 114.194 97.763 110.972 100.975C108.73 103.225 107.193 105.99 106.471 109.001H102C99.243 109.001 97 111.244 97 114.001V118.001C97 120.758 99.243 123.001 102 123.001H104.456C102.282 125.057 101 127.948 101 131V136C101 141.514 105.486 146 111 146H123H135C140.514 146 145 141.514 145 136V131C145 127.948 143.718 125.057 141.545 123H144C146.757 123 149 120.757 149 118V114C149 111.243 146.757 109 144 109ZM112.386 102.389C115.229 99.555 118.949 98 122.875 98C122.914 98 122.954 98 122.992 98L123 97L123.008 98C127.016 97.971 130.743 99.528 133.612 102.386C133.995 102.771 134.355 103.173 134.691 103.59C133.03 102.581 131.082 102 129 102C126.457 102 124.226 103.363 123 105.397C121.774 103.363 119.543 102 117 102C114.918 102 112.97 102.581 111.309 103.59C111.644 103.173 112.003 102.772 112.386 102.389ZM102 121C100.346 121 99 119.654 99 118V114C99 112.346 100.346 111 102 111H106V121H102ZM143 131V136C143 140.411 139.411 144 135 144H123H111C106.589 144 103 140.411 103 136V131C103 127.799 104.725 124.812 107.501 123.205L107.855 123H108V113C108 108.038 112.038 104 117 104C119.757 104 122 106.243 122 109V110H124V109C124 106.243 126.243 104 129 104C133.963 104 138 108.038 138 113V123H138.145L138.499 123.205C141.275 124.812 143 127.799 143 131ZM147 118C147 119.654 145.654 121 144 121H140V111H144C145.654 111 147 112.346 147 114V118ZM116 125C119.309 125 122 122.309 122 119C122 115.691 119.309 113 116 113C112.691 113 110 115.691 110 119C110 122.309 112.691 125 116 125ZM116 115C118.206 115 120 116.794 120 119C120 121.206 118.206 123 116 123C113.794 123 112 121.206 112 119C112 116.794 113.794 115 116 115ZM136 132H138V135C138 137.206 136.206 139 134 139H112C109.794 139 108 137.206 108 135V132H110V135C110 136.103 110.897 137 112 137H134C135.103 137 136 136.103 136 135V132ZM130 125C133.309 125 136 122.309 136 119C136 115.691 133.309 113 130 113C126.691 113 124 115.691 124 119C124 122.309 126.691 125 130 125ZM130 115C132.206 115 134 116.794 134 119C134 121.206 132.206 123 130 123C127.794 123 126 121.206 126 119C126 116.794 127.794 115 130 115Z" fill="#216E7A"/>
<defs>
<filter id="filter0_d" x="0" y="0" width="245" height="245" filterUnits="userSpaceOnUse" color-interpolation-filters="sRGB">
<feFlood flood-opacity="0" result="BackgroundImageFix"/>
<feColorMatrix in="SourceAlpha" type="matrix" values="0 0 0 0 0 0 0 0 0 0 0 0 0 0 0 0 0 0 127 0"/>
<feOffset dy="2"/>
<feGaussianBlur stdDeviation="25"/>
<feColorMatrix type="matrix" values="0 0 0 0 0.72549 0 0 0 0 0.835294 0 0 0 0 0.85098 0 0 0 0.6 0"/>
<feBlend mode="normal" in2="BackgroundImageFix" result="effect1_dropShadow"/>
<feBlend mode="normal" in="SourceGraphic" in2="effect1_dropShadow" result="shape"/>
</filter>
</defs>
</svg>
