<svg width="245" height="245" viewBox="0 0 245 245" fill="none" xmlns="http://www.w3.org/2000/svg" >
<g filter="url(#filter0_d)">
<circle cx="122.5" cy="120.5" r="72.5" fill="white"/>
</g>
<path opacity="0.8" d="M123.002 134C122.09 132.784 120.637 131.998 119 131.998C116.239 131.998 114 134.237 114 136.998C114 139.759 116.239 141.998 119 141.998C119.711 141.998 120.388 141.849 121 141.582L118.002 136.998L123.002 134Z" fill="#216E7A"/>
<path d="M143 105H139C137.346 105 136 106.343 136 107.997V110H125.209L107.627 102.343C105.677 101.495 103.327 102.29 102.396 104.121C101.942 105.013 101.875 106.018 102.209 106.956C102.56 107.94 103.301 108.725 104.296 109.162L106.198 110H105H102H98C95.794 110 94 111.794 94 114C94 116.206 95.794 118 98 118H102H105H114.178C110.515 121 108 124.365 108 128.999C108 131.497 108.713 133.913 110.057 136.008C110.021 136.333 110 136.663 110 136.998C110 141.961 114.037 145.998 119 145.998C122.686 145.998 125.962 143.79 127.346 140.373L127.306 140.357C131.293 138.133 134 133.877 134 128.997V127H136.185C136.599 128 137.699 129 139 129H143C144.654 129 146 127.652 146 125.997V107.997C146 106.343 144.654 105 143 105ZM105.102 107.332C104.616 107.118 104.257 106.745 104.093 106.285C103.946 105.871 103.976 105.424 104.177 105.029C104.64 104.123 105.828 103.743 106.828 104.178L120.198 110H111.163L105.102 107.332ZM96 114C96 112.897 96.897 112 98 112H98.556C98.212 113 98 113.268 98 114C98 114.732 98.212 116 98.556 116H98C96.897 116 96 115.103 96 114ZM119 143.997C115.141 143.997 112 140.856 112 136.997C112 133.138 115.141 129.997 119 129.997C121.126 129.997 123.123 130.98 124.441 132.608C123.543 133.464 122.335 133.997 121 133.997C118.794 133.997 117 135.791 117 137.997C117 140.203 118.794 141.997 121 141.997C122.144 141.997 123.248 141.834 124.306 141.555C123.001 143.078 121.089 143.997 119 143.997ZM125.613 130.92C123.925 129.091 121.537 127.997 119 127.997C117.966 127.997 116.976 128.181 116.05 128.504C116.302 125.981 118.412 123.997 121 123.997C123.757 123.997 126 126.24 126 128.997C126 129.679 125.861 130.328 125.613 130.92ZM132 125V126.997V128.997C132 135.062 127.065 139.997 121 139.997C119.897 139.997 119 139.1 119 137.997C119 136.894 119.897 135.997 121 135.997C124.859 135.997 128 132.856 128 128.997C128 125.138 124.859 121.997 121 121.997C117.141 121.997 114 125.138 114 128.997C114 129.198 113.965 129.395 113.906 129.585C112.587 130.494 111.528 131.749 110.845 133.214C110.293 131.885 110 130.458 110 128.997C110 122.932 115 117.997 121 117.997V116C120.663 116 105 116 105 116H102C100.897 116 100 115.103 100 114C100 112.897 100.897 112 102 112H105H136V125H134H132ZM144 125.997C144 126.549 143.552 127 143 127H142V121H140V127H139C138.448 127 138 126.549 138 125.997V107.997C138 107.446 138.448 107 139 107H143C143.552 107 144 107.446 144 107.997V125.997Z" fill="#216E7A"/>
<defs>
<filter id="filter0_d" x="0" y="0" width="245" height="245" filterUnits="userSpaceOnUse" color-interpolation-filters="sRGB">
<feFlood flood-opacity="0" result="BackgroundImageFix"/>
<feColorMatrix in="SourceAlpha" type="matrix" values="0 0 0 0 0 0 0 0 0 0 0 0 0 0 0 0 0 0 127 0"/>
<feOffset dy="2"/>
<feGaussianBlur stdDeviation="25"/>
<feColorMatrix type="matrix" values="0 0 0 0 0.72549 0 0 0 0 0.835294 0 0 0 0 0.85098 0 0 0 0.6 0"/>
<feBlend mode="normal" in2="BackgroundImageFix" result="effect1_dropShadow"/>
<feBlend mode="normal" in="SourceGraphic" in2="effect1_dropShadow" result="shape"/>
</filter>
</defs>
</svg>
